<?xml version="1.0" standalone="no"?>
<!DOCTYPE svg PUBLIC "-//W3C//DTD SVG 20010904//EN"
 "http://www.w3.org/TR/2001/REC-SVG-20010904/DTD/svg10.dtd">
<svg version="1.0" xmlns="http://www.w3.org/2000/svg"
 width="705.000000pt" height="365.000000pt" viewBox="0 0 705.000000 365.000000"
 preserveAspectRatio="xMidYMid meet">

<g transform="translate(0.000000,365.000000) scale(0.100000,-0.100000)"
fill="#000000" stroke="none">
<path d="M1934 3633 c3 -10 12 -66 21 -126 8 -59 24 -167 36 -240 11 -72 24
-161 29 -197 5 -36 19 -126 30 -200 11 -74 25 -166 30 -205 5 -38 14 -95 19
-125 5 -30 12 -81 16 -112 4 -32 11 -58 16 -58 12 0 11 21 -5 120 -8 47 -22
135 -31 195 -9 61 -22 154 -30 208 -8 53 -22 143 -30 200 -9 56 -22 143 -29
192 -43 279 -49 325 -45 330 3 2 311 8 685 11 373 4 722 10 774 14 52 4 -262
8 -698 9 -751 1 -793 0 -788 -16z"/>
<path d="M2770 3074 c0 -4 7 -50 15 -103 28 -171 41 -260 90 -588 21 -145 44
-297 56 -375 l11 -68 832 0 832 0 -6 55 -6 55 1228 0 1228 0 0 515 0 515
-2140 0 c-1177 0 -2140 -3 -2140 -6z"/>
<path d="M1710 2347 c0 -13 5 -50 11 -83 6 -32 15 -90 19 -129 4 -38 13 -97
19 -130 5 -33 19 -118 30 -190 11 -71 28 -180 37 -242 l18 -112 156 6 c85 3
157 7 159 9 2 2 -64 4 -147 4 -168 0 -155 -6 -167 80 -3 25 -12 88 -20 140 -8
52 -24 156 -35 230 -11 74 -27 176 -35 225 -8 50 -17 114 -21 143 l-6 52 159
1 c87 1 169 5 183 9 15 5 -55 8 -167 9 l-193 1 0 -23z"/>
<path d="M2135 2309 c3 -30 13 -97 21 -149 8 -52 21 -142 30 -200 8 -58 22
-145 29 -195 8 -49 19 -126 26 -169 14 -99 32 -146 23 -62 -3 32 -7 68 -9 80
-2 11 -14 86 -25 166 -11 80 -23 152 -25 160 -2 8 -7 40 -10 70 -3 30 -10 78
-15 105 -5 28 -14 92 -21 143 -7 51 -16 95 -22 99 -6 3 -7 -14 -2 -48z"/>
<path d="M734 2063 c6 -31 31 -199 47 -313 5 -41 14 -97 19 -125 4 -27 11 -69
14 -92 l6 -43 -410 0 c-305 0 -410 -3 -410 -12 0 -8 101 -10 409 -4 l409 7 10
-53 c12 -63 40 -245 48 -308 3 -25 9 -67 14 -95 5 -27 11 -70 14 -95 3 -25 13
-90 22 -145 22 -141 40 -261 61 -403 l18 -122 205 2 205 3 -193 2 c-223 4
-201 -9 -221 128 -11 77 -24 166 -57 385 -9 58 -22 146 -29 195 -8 50 -21 140
-30 200 -9 61 -23 150 -31 199 -8 49 -11 93 -7 97 5 5 110 10 233 12 l225 2
-232 3 -232 2 -10 53 c-6 28 -15 86 -21 127 -11 91 -47 323 -56 368 l-6 32
108 1 c60 1 224 5 364 9 l255 6 -373 2 -374 2 6 -27z"/>
<path d="M2586 1625 c8 -102 16 -145 25 -145 13 0 11 24 -11 120 -19 83 -19
83 -14 25z"/>
<path d="M2620 1670 c0 -6 80 -10 212 -10 116 0 209 2 207 4 -10 9 -419 15
-419 6z"/>
<path d="M2260 1453 c0 -30 25 -139 33 -145 6 -3 81 -4 168 -1 180 6 172 10
183 -87 4 -30 13 -95 21 -145 8 -49 21 -139 30 -200 9 -60 23 -149 31 -196 8
-48 14 -101 14 -118 l0 -31 133 2 132 2 -120 6 -119 5 -8 35 c-4 19 -14 81
-23 138 -36 235 -54 360 -60 412 -4 30 -11 73 -16 95 -4 22 -9 50 -9 63 l0 22
263 2 262 2 -265 6 -265 5 -8 60 c-12 87 -27 92 -20 7 l6 -72 -160 0 c-180 0
-167 -6 -178 83 -4 32 -11 57 -16 57 -5 0 -9 -3 -9 -7z"/>
</g>
</svg>
