<?xml version="1.0" standalone="no"?>
<!DOCTYPE svg PUBLIC "-//W3C//DTD SVG 20010904//EN"
 "http://www.w3.org/TR/2001/REC-SVG-20010904/DTD/svg10.dtd">
<svg version="1.0" xmlns="http://www.w3.org/2000/svg"
 width="1712.000000pt" height="238.000000pt" viewBox="0 0 1712.000000 238.000000"
 preserveAspectRatio="xMidYMid meet">

<g transform="translate(0.000000,238.000000) scale(0.100000,-0.100000)"
fill="#000000" stroke="none">
<path d="M8450 1653 c-166 -28 -309 -173 -341 -348 -38 -206 104 -415 319
-470 73 -19 127 -17 127 5 0 11 -16 16 -65 21 -95 8 -179 49 -244 120 -75 80
-100 147 -101 264 0 82 3 96 33 157 84 172 287 258 463 199 151 -51 242 -167
258 -331 5 -53 10 -65 25 -68 17 -4 18 2 14 70 -15 238 -250 421 -488 381z"/>
<path d="M8506 1554 c-3 -9 -6 -81 -6 -161 l0 -146 -61 -64 c-47 -49 -59 -67
-50 -76 8 -8 28 6 81 58 l70 69 0 162 c0 130 -3 163 -14 167 -8 3 -17 -1 -20
-9z"/>
<path d="M8197 1246 c-7 -18 1 -26 29 -26 28 0 42 19 23 31 -21 13 -46 11 -52
-5z"/>
<path d="M8682 1184 c-91 -45 -138 -130 -130 -234 6 -77 46 -144 112 -185 44
-27 58 -30 126 -30 68 0 82 3 126 30 30 19 60 49 79 79 27 44 30 58 30 126 0
68 -3 82 -30 126 -66 106 -202 145 -313 88z m196 -33 c72 -37 112 -102 112
-181 0 -113 -87 -200 -200 -200 -113 0 -200 87 -200 200 0 81 40 146 115 184
42 22 127 20 173 -3z"/>
<path d="M8722 1067 c-29 -29 -52 -58 -52 -65 0 -21 25 -13 55 18 16 17 32 30
37 30 4 0 8 -52 8 -115 0 -96 3 -115 15 -115 12 0 15 19 15 115 0 63 3 115 7
115 4 0 22 -14 39 -31 22 -22 38 -30 50 -25 15 6 8 17 -41 66 -33 33 -64 60
-70 60 -6 0 -34 -24 -63 -53z"/>
</g>
</svg>
