<?xml version="1.0" standalone="no"?>
<!DOCTYPE svg PUBLIC "-//W3C//DTD SVG 20010904//EN"
 "http://www.w3.org/TR/2001/REC-SVG-20010904/DTD/svg10.dtd">
<svg version="1.0" xmlns="http://www.w3.org/2000/svg"
 width="1323.000000pt" height="2482.000000pt" viewBox="0 0 1323.000000 2482.000000"
 preserveAspectRatio="xMidYMid meet">

<g transform="translate(0.000000,2482.000000) scale(0.100000,-0.100000)"
fill="#000000" stroke="none">
<path d="M6625 24768 c3 -29 13 -91 20 -138 8 -47 28 -170 45 -275 115 -718
148 -918 156 -947 5 -17 -26 -18 -554 -18 l-559 0 9 -47 c5 -27 13 -77 18
-113 5 -36 19 -125 30 -199 11 -73 20 -140 20 -147 0 -12 -91 -14 -564 -14
l-563 0 13 -77 c8 -43 34 -213 59 -378 65 -433 74 -490 90 -590 34 -218 44
-283 50 -325 3 -25 10 -70 15 -100 5 -30 12 -75 15 -100 3 -25 10 -70 15 -100
10 -62 37 -235 45 -295 4 -22 10 -65 15 -95 9 -49 34 -219 46 -310 3 -19 9
-57 14 -85 5 -27 11 -66 14 -85 2 -19 8 -56 11 -82 l7 -48 -97 0 c-88 0 -96
-2 -91 -18 3 -10 10 -53 16 -97 6 -44 14 -105 20 -135 5 -30 16 -101 25 -157
38 -260 47 -314 60 -398 14 -88 29 -188 60 -397 9 -57 22 -143 30 -193 8 -49
21 -137 30 -195 8 -58 22 -149 30 -202 8 -54 22 -142 30 -195 8 -54 28 -188
45 -298 17 -110 37 -245 45 -300 9 -55 24 -156 35 -225 11 -69 20 -134 20
-146 l0 -21 -690 5 c-681 5 -690 4 -690 -15 0 -11 4 -44 9 -74 6 -30 17 -99
25 -154 40 -260 69 -446 77 -505 5 -36 13 -92 19 -125 13 -78 60 -383 70 -460
5 -33 18 -118 29 -190 11 -71 27 -175 35 -230 9 -55 22 -145 31 -200 9 -55 20
-129 25 -165 5 -36 19 -126 30 -200 12 -74 27 -178 35 -230 8 -53 18 -114 23
-138 l10 -42 -877 2 c-482 1 -844 4 -806 7 202 17 -106 23 -1286 28 l-1286 5
9 -59 c5 -32 15 -98 23 -148 8 -49 21 -139 30 -200 9 -60 23 -150 30 -200 8
-49 21 -137 30 -195 9 -58 22 -145 30 -195 14 -88 29 -188 60 -397 9 -57 22
-143 30 -193 7 -49 21 -139 30 -200 9 -60 23 -150 31 -200 7 -49 26 -166 40
-260 14 -93 32 -213 40 -265 8 -52 19 -124 24 -160 11 -78 34 -229 49 -325 6
-38 18 -114 26 -167 31 -201 47 -305 60 -393 14 -92 33 -216 60 -397 9 -57 22
-143 30 -193 7 -49 21 -139 30 -200 9 -60 23 -152 31 -202 8 -51 20 -135 28
-185 8 -51 22 -142 31 -203 20 -136 33 -214 46 -282 l10 -53 354 0 c328 0 354
-1 359 -17 3 -10 12 -67 21 -128 8 -60 20 -135 25 -165 5 -30 16 -104 25 -165
9 -60 23 -150 30 -200 8 -49 21 -135 29 -190 9 -55 29 -190 46 -300 17 -110
37 -244 45 -297 24 -159 80 -526 111 -728 8 -52 19 -124 24 -160 5 -36 18
-126 30 -200 12 -74 26 -166 31 -205 5 -38 13 -95 19 -125 5 -30 16 -101 25
-157 37 -252 46 -313 60 -398 7 -49 21 -139 30 -200 9 -60 23 -152 31 -202 8
-51 20 -135 28 -185 8 -51 22 -142 31 -203 9 -60 23 -150 30 -200 8 -49 21
-137 30 -195 9 -58 22 -145 30 -195 13 -84 23 -149 60 -395 29 -192 45 -297
75 -495 17 -110 37 -243 45 -295 8 -52 26 -171 41 -265 14 -93 30 -201 35
-240 5 -38 13 -95 19 -125 5 -30 16 -101 25 -157 37 -252 46 -313 60 -398 7
-49 21 -139 30 -200 9 -60 23 -150 30 -200 8 -49 21 -137 30 -195 9 -58 23
-145 30 -195 14 -92 33 -216 60 -397 9 -57 22 -143 30 -193 8 -49 21 -136 30
-192 8 -57 22 -149 30 -205 9 -57 23 -149 32 -205 l17 -103 3014 0 3014 0 -6
42 c-3 24 -8 59 -11 78 -4 19 -19 116 -36 215 -46 288 -59 367 -69 425 -5 30
-12 71 -15 90 -11 74 -36 228 -50 305 -7 44 -17 105 -20 135 -4 30 -10 71 -15
90 -5 19 -11 59 -14 89 -4 29 -8 56 -10 60 -2 3 -7 26 -10 51 -11 76 -24 160
-45 285 -11 66 -22 136 -25 155 -2 19 -10 64 -16 100 -6 36 -18 106 -26 155
-8 50 -19 115 -24 145 -5 30 -12 73 -15 95 -3 22 -12 78 -19 125 -8 47 -22
130 -31 185 -9 55 -22 138 -30 185 -8 47 -24 144 -35 215 -12 72 -23 141 -25
155 -2 14 -11 68 -19 120 -9 52 -18 104 -20 115 -2 11 -7 47 -11 80 -3 32 -8
62 -10 65 -2 3 -8 39 -14 80 -6 41 -13 86 -16 100 -3 14 -8 43 -11 65 -2 22
-11 76 -18 120 -15 82 -32 192 -61 375 -9 58 -21 125 -26 150 -4 25 -11 68
-15 95 -4 28 -8 59 -11 70 -2 11 -12 74 -23 140 -22 138 -22 139 -56 345 -14
85 -28 167 -30 182 -2 16 -6 43 -9 60 -3 18 -12 75 -20 126 -8 51 -19 118 -24
150 -6 31 -17 102 -26 157 -9 55 -22 138 -30 185 -22 126 -66 401 -71 435 -5
39 -31 197 -49 305 -8 47 -21 130 -30 185 -9 55 -22 138 -30 185 -8 47 -21
130 -30 185 -9 55 -22 138 -30 185 -16 98 -42 259 -50 310 -3 19 -10 60 -15
90 -5 30 -17 100 -25 155 -9 55 -22 138 -30 185 -8 47 -21 130 -30 185 -9 55
-22 136 -30 180 -7 44 -28 170 -45 280 -18 110 -40 245 -49 300 l-17 100 -757
3 -757 2 4 -22 c3 -13 12 -68 21 -123 8 -55 22 -139 30 -187 28 -164 44 -263
50 -301 l6 -38 -1223 5 c-1389 6 -1300 5 -1273 16 15 6 10 9 -25 12 -25 3 521
5 1213 6 1193 2 1258 3 1253 20 -3 9 -8 35 -11 57 -7 46 -29 183 -50 300 -7
44 -16 102 -20 128 -19 138 -3 127 -179 127 -84 0 -155 -3 -158 -6 -3 -3 -2
-20 2 -37 4 -18 10 -51 13 -74 l5 -43 -1625 0 c-1458 0 -1623 2 -1609 15 13
14 197 16 1600 22 872 3 1583 9 1581 12 -2 4 -8 42 -15 86 -6 44 -12 87 -14
95 -4 22 -15 84 -31 182 -8 49 -22 128 -30 178 -8 50 -22 129 -30 178 -8 48
-17 105 -20 127 -4 22 -11 61 -17 88 l-10 47 -330 0 -329 0 6 -55 7 -55 -801
0 c-632 0 -803 3 -806 13 -5 12 -37 215 -56 357 -6 41 -12 86 -15 100 -3 14
-9 52 -14 85 -4 33 -13 92 -19 130 -20 126 -40 259 -44 295 -3 19 -9 62 -15
95 -6 33 -18 110 -27 170 -9 61 -23 151 -30 200 -14 88 -28 181 -61 400 -9 61
-22 145 -30 189 -8 43 -14 91 -14 107 l0 29 212 -2 212 -3 13 -80 c7 -44 20
-127 28 -185 9 -58 21 -134 27 -170 5 -36 14 -92 18 -125 5 -33 18 -121 30
-195 12 -74 28 -178 35 -230 8 -52 21 -140 30 -195 9 -55 20 -127 24 -160 16
-108 61 -398 76 -490 7 -49 17 -112 20 -140 3 -27 8 -58 11 -67 5 -17 39 -18
542 -16 295 1 508 4 472 7 l-65 6 65 11 c52 9 -40 12 -456 13 l-521 1 -12 78
c-7 42 -19 122 -27 177 -9 55 -22 141 -29 190 -8 50 -21 137 -30 195 -9 58
-22 146 -30 195 -8 50 -21 137 -30 195 -8 58 -22 149 -30 203 -8 53 -22 143
-31 200 -8 56 -22 143 -29 192 -26 169 -44 290 -51 343 l-6 52 556 0 c437 0
557 -3 560 -12 2 -7 17 -101 34 -208 17 -107 52 -321 76 -475 43 -264 57 -350
91 -555 8 -47 21 -130 30 -185 9 -55 22 -138 30 -185 8 -47 24 -143 35 -215
12 -71 23 -142 26 -157 l6 -28 330 0 331 0 -7 48 c-21 136 -21 124 5 120 25
-3 24 -2 45 -135 l5 -33 161 0 161 0 -7 43 c-3 23 -15 92 -26 152 -12 61 -23
133 -26 160 -3 28 -10 66 -15 85 -4 19 -11 52 -14 73 -11 77 -15 103 -20 127
-3 14 -10 54 -15 90 -5 36 -11 76 -14 90 -6 27 -12 63 -21 120 -2 19 -7 46
-10 60 -5 27 -31 181 -45 270 -5 30 -14 82 -19 115 -14 75 -31 182 -76 455
-79 480 -106 633 -111 641 -3 5 -384 9 -847 9 -780 1 -839 2 -807 17 31 14
131 16 859 21 677 4 825 2 831 -9 5 -7 11 -36 15 -64 3 -27 12 -84 20 -125 12
-63 72 -416 91 -540 3 -19 33 -195 66 -390 33 -195 62 -371 64 -390 3 -19 11
-66 19 -105 8 -38 16 -90 19 -115 3 -25 10 -67 15 -95 6 -27 17 -95 26 -150
30 -186 46 -280 56 -322 5 -23 11 -68 15 -100 3 -32 10 -73 16 -90 l10 -33
304 0 c349 0 314 -13 290 111 -8 41 -22 121 -31 179 -9 58 -23 139 -30 180 -8
41 -16 93 -19 115 -2 22 -14 94 -26 160 -26 145 -47 277 -60 365 -5 36 -13 88
-19 115 -5 28 -17 95 -26 150 -9 55 -21 127 -27 160 -5 33 -12 74 -15 90 -5
38 -39 243 -52 315 -6 30 -13 72 -16 93 -3 21 -16 102 -29 180 -14 78 -27 160
-30 182 -4 22 -10 63 -16 90 -5 28 -12 68 -15 90 -3 22 -10 65 -15 95 -16 95
-39 231 -56 335 -9 55 -18 110 -20 122 l-4 23 -673 2 c-369 1 -648 3 -619 5
28 2 52 8 52 13 0 5 -24 11 -52 13 -29 2 259 4 640 5 l692 2 0 -24 c0 -13 6
-57 14 -97 8 -41 22 -121 31 -179 9 -58 23 -139 30 -180 8 -41 17 -93 20 -115
4 -22 9 -49 11 -60 2 -11 8 -49 13 -85 10 -66 48 -294 75 -450 8 -47 22 -130
31 -185 9 -55 22 -131 29 -170 8 -38 22 -119 31 -180 9 -60 22 -141 30 -180 7
-38 20 -115 29 -170 28 -167 46 -277 57 -340 5 -33 12 -73 15 -90 19 -118 58
-345 79 -465 7 -41 18 -109 25 -150 6 -41 14 -83 16 -92 5 -17 -15 -18 -325
-18 l-331 0 0 -22 c0 -13 7 -61 15 -108 26 -147 96 -564 110 -662 l6 -38 778
0 779 0 16 -92 c14 -86 56 -341 92 -568 8 -52 19 -117 24 -145 9 -51 38 -229
66 -410 9 -55 22 -131 29 -170 13 -68 28 -159 45 -280 10 -65 13 -84 36 -220
9 -49 19 -117 24 -150 4 -33 13 -87 19 -120 6 -33 18 -105 26 -160 16 -100 32
-199 60 -362 32 -190 67 -410 71 -443 3 -19 12 -75 20 -125 16 -94 32 -192 59
-360 9 -55 23 -138 30 -185 8 -47 21 -130 30 -185 15 -94 27 -164 30 -175 0
-3 4 -32 9 -65 4 -33 12 -77 17 -98 6 -21 14 -71 19 -110 5 -40 14 -92 19
-117 5 -25 12 -67 15 -95 3 -27 8 -61 12 -75 3 -14 9 -56 15 -95 9 -73 23
-156 39 -240 6 -27 13 -70 16 -95 3 -25 8 -56 10 -70 2 -14 11 -69 19 -122 9
-53 17 -103 20 -110 4 -12 29 -166 41 -258 3 -19 17 -102 31 -185 14 -82 29
-179 34 -214 5 -35 11 -71 13 -80 3 -9 8 -36 11 -61 3 -25 8 -56 10 -70 3 -14
7 -41 10 -60 3 -19 10 -60 15 -90 15 -85 19 -112 25 -155 3 -22 11 -67 17
-100 5 -33 12 -73 14 -90 3 -16 6 -41 9 -55 5 -38 35 -222 40 -250 3 -14 9
-54 15 -90 5 -36 14 -90 19 -120 16 -91 39 -229 56 -335 40 -248 47 -295 60
-365 8 -41 16 -93 18 -115 2 -22 9 -67 16 -100 6 -33 24 -145 41 -250 17 -104
37 -228 45 -275 8 -47 21 -130 30 -185 9 -55 22 -138 30 -185 8 -47 22 -132
30 -190 9 -58 19 -115 21 -127 l4 -23 2045 0 2045 0 0 12410 0 12410 -550 0
c-302 0 -550 -3 -550 -8 0 -4 5 -23 10 -42 6 -19 14 -60 20 -90 5 -30 19 -100
30 -155 12 -55 24 -112 26 -127 l5 -28 -401 0 -402 0 5 -37 c12 -86 28 -177
32 -183 2 -3 7 -29 10 -56 3 -27 12 -80 19 -119 28 -138 37 -191 46 -250 5
-33 16 -96 24 -140 8 -44 17 -93 20 -110 3 -16 8 -39 10 -50 2 -11 7 -40 11
-65 4 -25 9 -54 11 -65 2 -11 9 -47 14 -80 5 -33 12 -71 15 -85 9 -43 36 -193
45 -250 5 -30 13 -77 19 -105 5 -27 12 -66 15 -85 3 -19 12 -71 20 -115 8 -44
24 -134 36 -200 12 -66 28 -156 36 -200 8 -44 19 -105 24 -135 10 -65 36 -215
49 -285 6 -27 17 -90 26 -140 9 -49 22 -124 30 -165 7 -41 21 -120 30 -175 9
-55 23 -130 31 -167 8 -37 14 -74 14 -82 0 -14 -87 -16 -835 -16 -718 0 -835
-2 -835 -14 0 -8 9 -68 21 -133 11 -65 24 -146 30 -181 5 -34 16 -102 25 -150
8 -48 22 -127 30 -177 8 -49 18 -112 24 -140 5 -27 16 -95 25 -150 9 -55 23
-136 30 -180 8 -44 17 -96 19 -115 3 -19 15 -89 26 -155 11 -66 25 -147 31
-180 5 -33 12 -71 15 -85 2 -14 7 -41 10 -60 2 -19 9 -57 14 -85 6 -27 14 -81
20 -120 5 -38 12 -81 15 -95 3 -14 8 -43 11 -65 3 -22 9 -56 13 -75 l7 -35
171 -3 171 -2 15 -88 c9 -48 24 -132 32 -187 9 -55 22 -134 30 -175 7 -41 21
-120 30 -175 9 -55 23 -140 31 -190 8 -49 21 -126 29 -170 8 -44 16 -94 19
-110 2 -17 8 -55 14 -85 6 -30 16 -89 23 -130 6 -41 18 -113 26 -160 8 -47 19
-111 24 -144 5 -32 11 -70 14 -85 3 -14 8 -42 11 -61 2 -19 7 -47 10 -62 l6
-28 358 0 358 0 10 -62 c11 -60 26 -159 57 -353 27 -176 92 -582 120 -755 8
-47 22 -132 30 -190 9 -58 21 -127 26 -153 5 -26 9 -59 9 -73 l0 -24 -427 2
-428 3 -7 63 c-13 115 57 102 -554 102 l-535 0 6 -52 c5 -50 8 -63 20 -128 3
-14 10 -54 15 -90 5 -36 14 -90 19 -120 19 -106 40 -236 56 -345 9 -60 21
-129 26 -153 5 -24 14 -76 19 -115 6 -40 11 -79 13 -87 2 -8 7 -37 11 -65 4
-27 13 -84 21 -125 7 -41 20 -120 29 -175 9 -55 36 -224 61 -375 24 -151 56
-347 70 -435 14 -88 28 -173 31 -190 10 -71 36 -226 49 -300 8 -44 17 -106 21
-137 l6 -58 -66 0 c-48 0 -64 -3 -61 -12 6 -17 14 -60 26 -138 5 -36 12 -76
14 -90 3 -14 8 -41 11 -60 3 -19 11 -71 19 -115 8 -44 21 -120 29 -170 38
-227 48 -286 62 -367 14 -88 30 -186 59 -360 9 -51 21 -120 27 -153 5 -33 14
-85 19 -115 4 -30 24 -149 44 -264 19 -114 35 -210 35 -212 0 -2 -951 -4
-2112 -3 -1162 0 -2108 2 -2103 4 6 2 69 7 140 12 l130 8 -135 5 c-74 3 799 7
1941 8 1142 1 2078 4 2081 7 2 3 -3 51 -13 108 -9 56 -19 116 -22 132 -19 120
-49 303 -61 370 -18 98 -40 227 -61 360 -9 55 -22 136 -30 180 -27 154 -44
250 -50 298 -4 27 -9 59 -11 70 -3 12 -9 49 -14 82 -4 33 -13 80 -18 105 -6
25 -13 71 -17 103 -3 32 -8 64 -11 70 -2 7 -11 53 -18 102 -14 87 -40 246 -71
425 -32 187 -38 227 -50 300 -2 14 -8 50 -14 80 -5 30 -13 77 -16 104 -3 27
-8 53 -11 57 -2 4 -7 34 -10 66 -3 32 -12 83 -19 113 -7 30 -16 80 -20 110 -4
30 -9 64 -11 75 -2 11 -8 49 -14 85 -5 36 -12 76 -15 90 -3 14 -8 43 -11 65
-3 22 -11 74 -19 115 -7 41 -21 120 -30 175 -8 55 -20 125 -25 155 -6 30 -22
127 -36 215 -14 88 -27 162 -29 165 -2 3 -6 30 -9 60 -4 30 -13 89 -20 130 -8
41 -21 118 -30 170 -17 106 -28 171 -31 183 -2 4 -3 16 -4 27 -1 19 -8 20
-293 21 -162 0 -302 5 -313 10 -17 8 -16 8 7 4 15 -3 29 -1 33 4 3 6 -14 12
-37 14 -24 2 100 4 275 5 263 2 317 4 317 16 0 8 -6 47 -14 87 -13 69 -39 220
-52 299 -3 19 -34 208 -70 420 -36 212 -69 414 -75 450 -5 36 -19 117 -30 180
-11 63 -23 130 -26 148 l-6 32 -748 0 c-738 0 -749 0 -749 20 0 19 12 19 765
20 l765 0 6 -27 c3 -16 8 -35 10 -43 3 -8 9 -44 14 -80 5 -36 32 -200 60 -365
28 -165 55 -325 60 -355 14 -95 90 -552 105 -630 7 -41 16 -96 20 -122 l6 -48
665 0 664 0 -5 23 c-2 12 -16 94 -30 182 -15 88 -28 171 -31 185 -2 14 -9 56
-14 94 -6 37 -12 71 -14 75 -2 3 -7 29 -10 56 -4 28 -13 84 -21 125 -7 41 -17
97 -20 123 -4 27 -8 59 -11 70 -6 35 -64 378 -70 417 -3 19 -11 71 -19 115 -8
44 -16 95 -19 114 -11 75 -28 179 -41 246 -8 39 -16 88 -19 110 -5 44 -50 314
-67 410 -6 33 -15 85 -19 115 -15 101 -83 501 -106 623 -7 42 -14 89 -14 102
l0 25 -188 0 c-312 0 -1160 15 -1122 19 l35 5 -40 6 c-35 6 -31 7 28 9 64 1
67 2 63 24 -5 23 -17 96 -66 402 -17 105 -37 228 -45 275 -8 47 -21 130 -30
185 -9 55 -22 138 -30 185 -8 47 -21 128 -30 181 l-16 96 -776 7 c-426 4 -777
5 -780 2 -3 -2 2 -40 10 -83 8 -43 23 -125 32 -183 9 -58 23 -136 31 -174 8
-38 14 -75 14 -82 0 -12 -90 -14 -551 -14 l-552 0 6 -37 c4 -21 9 -53 13 -70
l7 -33 -806 0 c-759 0 -806 1 -811 18 -3 9 -10 51 -15 92 -6 41 -20 136 -31
210 -12 74 -26 167 -31 205 -5 39 -13 95 -18 125 -10 55 -26 161 -56 360 -9
58 -22 143 -30 190 -8 47 -17 112 -21 145 -5 33 -9 62 -9 65 -1 3 -5 28 -9 55
-4 28 -14 88 -21 135 -8 47 -21 135 -30 195 -9 61 -23 148 -30 195 -7 47 -16
106 -20 133 l-6 47 484 0 484 0 -13 83 c-18 110 -40 250 -59 375 -8 56 -22
148 -30 205 -33 213 -47 305 -61 387 -8 47 -14 95 -14 108 l0 22 233 2 c127 1
207 4 177 7 l-55 5 70 6 c41 4 -36 7 -182 8 l-251 2 -11 68 c-6 37 -18 114
-26 172 -9 58 -20 129 -26 159 -5 30 -9 60 -9 68 0 11 94 13 524 13 l524 0 11
-52 c7 -29 16 -84 21 -122 6 -39 15 -96 20 -126 5 -30 17 -102 25 -160 9 -58
23 -141 30 -185 8 -44 21 -125 30 -180 9 -55 22 -138 30 -185 21 -130 63 -392
91 -570 8 -52 21 -133 29 -180 8 -47 21 -128 29 -180 9 -52 25 -151 36 -219
11 -68 20 -127 20 -132 0 -5 -99 -9 -220 -9 -213 0 -220 -1 -220 -20 0 -20 6
-20 1108 -18 609 1 1081 3 1050 5 -32 2 -58 8 -58 13 0 5 26 11 58 13 31 2
-331 4 -806 5 l-862 2 -9 23 c-4 12 -11 45 -15 72 -7 45 -42 271 -81 510 -24
150 -74 464 -90 565 -9 52 -22 133 -30 180 -8 47 -21 130 -30 185 -14 90 -49
315 -91 575 -8 52 -18 116 -23 143 l-8 47 76 1 c74 1 75 1 41 14 l-35 13 50 4
c32 3 14 5 -47 6 l-98 2 0 28 c0 15 -7 68 -15 117 -24 136 -52 308 -70 420 -9
55 -22 138 -30 185 -14 83 -28 170 -60 380 -9 58 -23 138 -31 179 -8 40 -14
84 -14 97 0 18 -6 24 -21 24 -19 0 -20 -4 -14 -52z m1735 -7558 c0 -20 -6 -20
-582 -18 -321 1 -564 3 -540 5 23 2 42 8 42 13 0 6 211 11 533 13 292 1 535 3
540 5 4 1 7 -7 7 -18z m-1177 3 c-13 -2 -33 -2 -45 0 -13 2 -3 4 22 4 25 0 35
-2 23 -4z m80 0 c-7 -2 -21 -2 -30 0 -10 3 -4 5 12 5 17 0 24 -2 18 -5z
m-4816 -7935 c-3 -8 -6 -5 -6 6 -1 11 2 17 5 13 3 -3 4 -12 1 -19z"/>
<path d="M8710 24811 c0 -5 6 -42 14 -82 8 -41 22 -123 31 -184 9 -60 23 -144
30 -185 7 -41 20 -122 29 -180 9 -58 23 -143 31 -190 8 -47 21 -130 30 -185
29 -178 45 -273 60 -362 8 -49 21 -133 30 -188 9 -55 22 -138 30 -185 8 -47
21 -130 30 -185 9 -55 22 -138 30 -185 8 -47 21 -130 30 -185 29 -178 45 -273
60 -362 8 -49 21 -133 30 -188 9 -55 22 -138 30 -185 8 -47 21 -130 30 -185 9
-55 22 -138 30 -185 8 -47 17 -101 19 -120 2 -19 9 -60 15 -90 6 -30 13 -76
16 -102 l6 -48 1315 0 1314 0 0 27 c0 26 -18 137 -46 283 -18 98 -46 251 -104
585 -16 94 -36 206 -45 250 -8 44 -22 125 -30 180 -9 55 -23 132 -30 170 -8
39 -21 111 -29 160 -22 129 -29 168 -33 185 -2 8 -6 33 -9 55 -3 22 -12 72
-19 110 -8 39 -16 86 -19 105 -3 19 -8 46 -11 60 -3 14 -8 41 -11 60 -3 19 -9
53 -14 75 -5 22 -12 63 -16 90 -3 28 -8 59 -11 70 -5 25 -43 240 -49 280 -9
61 -35 201 -44 245 -6 25 -15 74 -20 110 -6 36 -16 99 -23 140 l-13 75 -364 5
c-201 3 -350 6 -332 8 17 1 32 6 32 11 0 6 -15 12 -32 14 -18 2 128 5 325 5
l359 2 -6 53 c-4 28 -13 81 -21 117 -7 36 -19 99 -26 140 -6 41 -14 81 -16 88
-4 9 -272 12 -1294 12 -750 0 -1289 -4 -1289 -9z"/>
<path d="M11340 24799 c0 -11 9 -66 19 -122 39 -202 42 -222 46 -237 2 -8 4
-18 4 -22 1 -9 745 -11 753 -2 3 3 -1 33 -9 67 -8 34 -18 85 -23 112 -5 28
-17 89 -26 138 l-18 87 -373 0 c-369 0 -373 0 -373 -21z"/>
<path d="M9336 20973 c3 -21 12 -73 20 -115 9 -43 12 -82 9 -88 -4 -7 -252
-10 -724 -10 l-718 0 4 -27 c2 -16 10 -66 18 -113 8 -47 22 -130 31 -185 9
-55 22 -129 28 -165 l12 -65 799 -5 800 -5 12 -75 c7 -41 19 -115 27 -165 9
-49 22 -135 31 -190 9 -55 22 -138 30 -185 8 -47 26 -157 40 -245 51 -321 76
-471 81 -497 l6 -28 403 0 c249 0 406 4 410 10 3 5 -1 44 -9 87 -15 77 -30
166 -61 358 -22 139 -43 266 -60 360 -8 44 -21 125 -30 180 -16 100 -37 228
-57 340 -5 33 -14 85 -19 115 -4 30 -10 66 -13 80 -3 14 -14 84 -26 155 -11
72 -27 166 -35 210 -7 44 -21 125 -31 180 -9 55 -18 106 -20 113 -3 9 -108 12
-483 12 l-480 0 5 -37z"/>
<path d="M6810 20866 c0 -11 16 -14 73 -14 47 0 63 3 47 8 -25 7 -25 7 5 12
17 3 -5 6 -47 7 -62 1 -78 -2 -78 -13z"/>
<path d="M6824 20743 c8 -29 25 -125 29 -168 2 -22 9 -67 15 -100 21 -115 42
-241 72 -430 30 -191 46 -287 56 -337 l6 -28 527 0 528 0 -8 48 c-4 26 -17
101 -29 167 -12 66 -26 149 -31 185 -5 36 -11 71 -14 78 -3 9 -52 12 -192 13
-104 1 -170 5 -148 9 l40 6 -40 6 c-22 2 44 5 146 6 l186 2 -4 28 c-2 15 -10
65 -18 112 -8 47 -21 130 -30 185 -9 55 -22 129 -29 165 l-12 65 -528 3 c-499
2 -527 1 -522 -15z"/>
<path d="M10238 15515 c-4 -5 5 -83 16 -135 3 -14 8 -45 11 -70 3 -25 9 -58
12 -75 4 -16 7 -32 8 -35 1 -3 5 -30 9 -60 4 -30 9 -64 11 -75 2 -11 8 -47 14
-80 14 -84 24 -137 28 -155 1 -8 7 -44 13 -80 5 -36 12 -76 14 -90 3 -14 12
-68 21 -120 9 -52 29 -174 46 -270 16 -96 32 -193 35 -215 3 -22 7 -50 10 -62
8 -42 77 -445 88 -518 2 -16 16 -100 30 -185 15 -85 33 -198 42 -250 9 -52 22
-126 29 -165 8 -38 16 -88 18 -110 3 -22 10 -64 17 -92 l12 -53 40 0 40 0 -7
38 c-4 20 -11 64 -16 97 -4 33 -17 116 -29 185 -11 69 -23 139 -25 155 -10 59
-36 221 -50 305 -8 47 -21 130 -30 185 -8 55 -22 141 -30 190 -43 255 -75 454
-79 490 -3 22 -8 51 -11 65 -3 14 -10 57 -15 95 -6 39 -12 77 -15 85 -2 8 -7
35 -10 60 -3 25 -12 81 -20 125 -20 119 -44 265 -49 310 -3 22 -8 51 -11 65
-3 14 -10 59 -16 100 -6 41 -12 77 -14 80 -2 3 -6 30 -9 60 -8 67 -14 100 -27
163 l-11 47 -42 0 c-24 0 -45 -2 -48 -5z"/>
<path d="M5545 10263 c3 -21 12 -76 20 -123 8 -47 28 -168 45 -270 53 -322 62
-375 66 -387 2 -10 44 -13 164 -13 149 0 161 1 157 18 -3 9 -10 49 -17 87 -6
39 -17 106 -25 150 -8 44 -21 122 -30 173 -30 184 -44 268 -56 335 l-11 67
-160 0 -159 0 6 -37z"/>
</g>
</svg>
