<?xml version="1.0" standalone="no"?>
<!DOCTYPE svg PUBLIC "-//W3C//DTD SVG 20010904//EN"
 "http://www.w3.org/TR/2001/REC-SVG-20010904/DTD/svg10.dtd">
<svg version="1.0" xmlns="http://www.w3.org/2000/svg"
 width="1712.000000pt" height="238.000000pt" viewBox="0 0 1712.000000 238.000000"
 preserveAspectRatio="xMidYMid meet">

<g transform="translate(0.000000,238.000000) scale(0.100000,-0.100000)"
fill="#000000" stroke="none">
<path d="M8487 1645 c-8 -7 -18 -35 -21 -60 -6 -36 -13 -48 -35 -60 -27 -13
-31 -12 -67 15 -22 16 -49 30 -60 30 -26 0 -114 -91 -114 -117 0 -10 14 -35
30 -56 24 -33 27 -43 19 -66 -9 -25 -17 -29 -57 -34 -63 -7 -82 -32 -82 -106
0 -73 13 -90 75 -99 42 -6 50 -11 61 -39 12 -29 11 -34 -16 -68 -17 -21 -30
-45 -30 -54 0 -20 100 -121 119 -121 7 0 31 14 53 32 34 26 44 30 66 22 22 -8
28 -18 33 -49 10 -78 20 -85 109 -85 89 0 100 8 100 73 0 36 11 50 48 61 17 6
32 0 61 -23 21 -17 45 -31 53 -31 17 0 118 103 118 120 0 7 -13 29 -30 50 -16
21 -30 45 -30 54 0 28 38 56 74 56 53 0 66 20 66 104 0 84 -5 91 -72 101 -38
6 -48 12 -58 35 -10 25 -8 33 19 70 17 24 31 48 31 54 0 17 -103 116 -121 116
-8 0 -34 -14 -56 -30 -37 -27 -44 -29 -67 -18 -26 11 -33 26 -38 83 -2 20 -11
34 -28 42 -35 18 -135 17 -153 -2z m148 -79 c7 -54 8 -54 57 -75 l50 -21 38
30 c21 17 42 30 47 30 5 0 26 -18 48 -40 l39 -40 -32 -39 c-36 -45 -39 -59
-16 -104 22 -42 31 -47 82 -47 l42 0 0 -64 0 -63 -52 -9 c-50 -9 -52 -11 -71
-57 l-20 -48 33 -45 33 -46 -41 -41 -41 -41 -47 33 c-44 32 -47 33 -85 21 -49
-17 -55 -24 -63 -83 l-7 -48 -62 3 -62 3 -3 43 c-3 36 -8 46 -35 63 -56 34
-72 34 -117 -2 l-40 -33 -45 44 -45 44 24 26 c42 45 47 64 30 107 -20 46 -25
50 -86 58 l-49 7 3 62 3 61 50 5 c48 5 51 6 73 54 l23 49 -30 43 c-17 23 -31
46 -31 50 0 14 63 74 78 74 7 0 31 -14 52 -31 l39 -32 48 24 c44 22 48 27 51
64 4 64 6 65 71 65 l60 0 6 -54z"/>
<path d="M8480 1400 c-80 -37 -125 -97 -136 -183 -12 -88 41 -184 127 -228 45
-23 134 -25 182 -6 126 53 176 204 107 324 -56 97 -181 139 -280 93z m166 -39
c43 -19 86 -68 99 -110 12 -38 7 -108 -9 -139 -19 -37 -79 -90 -112 -98 -14
-4 -49 -4 -79 -2 -152 13 -217 192 -111 307 58 62 134 77 212 42z"/>
</g>
</svg>
