<?xml version="1.0" standalone="no"?>
<!DOCTYPE svg PUBLIC "-//W3C//DTD SVG 20010904//EN"
 "http://www.w3.org/TR/2001/REC-SVG-20010904/DTD/svg10.dtd">
<svg version="1.0" xmlns="http://www.w3.org/2000/svg"
 width="2320.000000pt" height="870.000000pt" viewBox="0 0 2320.000000 870.000000"
 preserveAspectRatio="xMidYMid meet">

<g transform="translate(0.000000,870.000000) scale(0.100000,-0.100000)"
fill="#000000" stroke="none">
<path d="M2650 8234 c-275 -24 -491 -73 -723 -165 -395 -157 -761 -446 -1018
-801 -229 -316 -374 -684 -430 -1088 -16 -114 -16 -462 0 -580 98 -730 507
-1350 1141 -1727 493 -294 1119 -395 1680 -272 639 140 1172 523 1520 1094 32
54 68 103 79 109 27 15 803 1067 797 1082 -2 6 -185 256 -407 555 -221 299
-425 582 -453 629 -376 631 -999 1048 -1711 1145 -110 15 -390 26 -475 19z
m475 -279 c217 -34 398 -91 602 -192 421 -206 747 -534 953 -958 212 -438 266
-927 155 -1399 -98 -416 -337 -809 -659 -1085 -389 -333 -866 -511 -1370 -511
-707 0 -1345 343 -1737 933 -167 253 -276 538 -326 853 -21 134 -23 448 -4
579 126 869 749 1550 1601 1749 91 21 153 31 320 50 70 8 367 -4 465 -19z"/>
<path d="M2813 6503 c-28 -5 -83 -67 -83 -93 0 -17 -7 -20 -40 -20 -29 0 -42
-5 -50 -20 -9 -18 -21 -20 -96 -20 -81 0 -87 -1 -115 -29 l-29 -29 0 -486 0
-485 24 -28 24 -28 389 -3 389 -3 29 31 30 31 3 472 c2 343 -1 479 -9 500 -18
42 -56 57 -149 57 -61 0 -80 3 -80 14 0 14 -28 25 -65 26 -13 1 -27 15 -40 43
-24 51 -78 80 -132 70z m76 -67 c6 -7 14 -30 19 -52 7 -37 10 -39 50 -42 42
-3 42 -3 42 -43 l0 -39 -161 0 -160 0 3 38 c3 35 5 37 43 40 44 4 55 14 55 53
0 54 76 85 109 45z m-257 -178 l3 -43 205 0 205 0 3 43 3 42 84 0 c73 0 86 -3
95 -19 6 -13 10 -182 10 -480 0 -404 -2 -461 -16 -475 -13 -14 -62 -16 -383
-16 -272 0 -370 3 -379 12 -17 17 -17 949 0 966 7 7 43 12 89 12 l78 0 3 -42z"/>
<path d="M2565 6075 c-34 -33 -34 -93 -2 -123 53 -50 147 -12 147 60 -1 77
-92 117 -145 63z m85 -40 c20 -25 8 -50 -25 -50 -21 0 -31 5 -33 18 -4 21 14
47 33 47 7 0 18 -7 25 -15z"/>
<path d="M2754 6025 c-12 -31 7 -35 192 -35 160 0 185 2 191 16 3 9 0 20 -8
25 -8 5 -94 9 -192 9 -146 0 -179 -3 -183 -15z"/>
<path d="M2600 5863 c-62 -22 -81 -103 -35 -148 27 -28 63 -32 104 -10 32 16
41 33 41 75 0 51 -64 99 -110 83z m57 -69 c8 -22 -10 -49 -32 -49 -10 0 -22 7
-28 16 -15 24 -1 49 28 49 15 0 28 -7 32 -16z"/>
<path d="M2750 5781 c0 -10 7 -22 16 -25 25 -9 347 -7 363 3 8 5 11 16 8 25
-6 14 -31 16 -197 16 -180 0 -190 -1 -190 -19z"/>
<path d="M2565 5605 c-54 -53 -16 -145 60 -145 49 0 85 36 85 85 0 49 -36 85
-85 85 -25 0 -44 -8 -60 -25z m85 -40 c20 -25 8 -50 -25 -50 -24 0 -31 5 -33
24 -6 37 34 55 58 26z"/>
<path d="M2752 5548 c3 -23 3 -23 193 -23 183 0 190 1 190 20 0 19 -8 20 -193
23 l-193 2 3 -22z"/>
<path d="M7080 8234 c-350 -28 -612 -100 -904 -246 -461 -231 -846 -630 -1066
-1104 l-42 -92 90 -122 c98 -133 95 -132 122 -45 20 67 99 235 152 325 253
428 633 743 1098 908 223 80 389 111 635 119 346 12 657 -55 970 -207 616
-301 1031 -868 1141 -1561 21 -131 24 -447 5 -574 -96 -659 -457 -1196 -1024
-1524 -457 -264 -1002 -341 -1532 -216 -520 123 -993 475 -1283 956 -51 85
-138 269 -162 342 -7 22 -16 35 -20 30 -5 -4 -47 -60 -93 -122 l-84 -115 36
-75 c383 -813 1205 -1331 2111 -1331 574 0 1091 195 1530 576 189 164 347 356
481 583 23 41 50 76 59 78 13 4 748 987 789 1056 14 23 -1 44 -397 580 -226
307 -430 590 -453 630 -183 315 -475 613 -795 810 -271 167 -579 277 -899 322
-101 14 -383 26 -465 19z"/>
<path d="M11460 8234 c-287 -25 -514 -78 -750 -176 -520 -215 -971 -649 -1210
-1165 l-38 -82 91 -121 90 -121 32 83 c102 265 242 484 439 687 189 194 358
317 587 429 203 98 400 160 624 193 118 18 462 18 580 1 565 -85 1062 -387
1388 -845 118 -166 199 -321 273 -525 129 -356 151 -788 59 -1177 -177 -748
-769 -1334 -1540 -1524 -291 -72 -650 -72 -955 0 -537 125 -1009 472 -1296
950 -54 90 -141 271 -163 342 -7 20 -16 37 -19 37 -4 0 -46 -54 -94 -119 l-88
-119 36 -77 c176 -381 506 -747 881 -979 373 -229 786 -346 1228 -346 306 0
577 51 858 162 471 185 898 555 1151 996 26 45 54 82 61 82 7 0 191 241 409
536 l396 536 -22 31 c-13 18 -196 266 -407 552 -212 286 -408 558 -435 605
-235 395 -563 703 -962 903 -255 128 -479 198 -739 233 -111 14 -383 25 -465
18z"/>
<path d="M15850 8234 c-350 -28 -612 -100 -904 -246 -459 -230 -856 -642
-1066 -1105 l-33 -72 91 -121 c49 -67 92 -117 95 -113 2 4 10 26 17 48 20 67
99 235 152 325 287 487 744 829 1293 969 172 44 272 55 495 55 357 1 608 -55
915 -204 627 -306 1043 -886 1146 -1595 17 -115 17 -434 0 -550 -85 -586 -401
-1096 -881 -1424 -492 -336 -1086 -444 -1675 -306 -280 66 -588 221 -816 411
-108 90 -284 276 -355 375 -111 156 -200 319 -256 469 -11 30 -24 59 -28 63
-7 8 -180 -216 -180 -233 0 -14 63 -144 111 -227 292 -506 760 -885 1314
-1063 475 -153 1003 -147 1479 17 119 40 337 144 445 210 327 203 604 485 797
814 26 45 55 84 63 86 9 2 194 246 412 540 l396 536 -412 557 c-227 307 -437
600 -468 651 -92 156 -203 296 -356 450 -240 240 -471 394 -776 517 -182 74
-354 120 -550 147 -101 14 -383 26 -465 19z"/>
<path d="M20240 8234 c-414 -34 -756 -143 -1084 -346 -381 -236 -710 -606
-891 -1003 l-33 -74 91 -121 90 -121 32 83 c260 685 891 1187 1641 1305 135
21 458 23 589 4 718 -106 1311 -548 1608 -1200 129 -283 188 -555 188 -871 0
-252 -38 -479 -117 -697 -301 -836 -1084 -1383 -1977 -1383 -482 0 -946 169
-1322 481 -262 217 -498 545 -611 851 l-28 77 -92 -125 -93 -125 37 -77 c252
-534 711 -961 1269 -1181 264 -103 489 -148 793 -158 599 -19 1147 181 1613
586 413 359 698 900 771 1466 21 156 21 440 0 587 -75 541 -288 973 -669 1353
-375 376 -812 595 -1338 671 -98 14 -383 25 -467 18z"/>
<path d="M7030 6500 c-120 -21 -224 -84 -295 -180 -64 -88 -87 -156 -92 -270
-4 -75 0 -108 15 -156 63 -200 252 -334 471 -334 89 0 214 43 269 93 l23 21
207 -207 c114 -114 212 -207 219 -207 6 0 14 7 17 17 5 12 -47 70 -198 222
l-205 206 24 32 c86 109 122 261 94 395 -50 238 -306 409 -549 368z m215 -67
c142 -43 239 -150 281 -308 71 -265 -159 -534 -438 -512 -128 9 -228 60 -304
154 -67 81 -88 148 -89 273 0 98 2 110 32 172 90 191 310 285 518 221z"/>
<path d="M15783 6500 c-33 -14 -43 -42 -43 -122 0 -85 14 -113 61 -123 31 -7
31 -8 26 -53 -4 -40 -11 -51 -62 -96 -32 -27 -64 -65 -71 -83 -11 -25 -14
-103 -14 -344 0 -299 1 -313 21 -346 41 -67 70 -73 327 -73 221 0 230 1 262
23 19 12 43 38 54 57 20 33 21 53 24 335 4 354 2 362 -83 426 -59 45 -65 54
-65 109 0 35 3 39 30 45 42 9 60 49 60 133 0 61 -3 71 -26 93 -25 24 -27 24
-252 26 -125 1 -237 -2 -249 -7z m465 -52 c7 -7 12 -39 12 -75 0 -57 -2 -63
-22 -68 -13 -3 -117 -4 -233 -3 l-210 3 -3 69 c-2 49 1 72 10 77 22 14 432 11
446 -3z m-78 -252 c0 -58 2 -61 97 -147 45 -40 53 -67 53 -170 l0 -68 -37 -8
c-69 -15 -165 -6 -253 22 -98 31 -197 41 -257 27 l-43 -10 0 81 0 82 65 61
c65 60 85 97 85 156 l0 28 145 0 145 0 0 -54z m-145 -422 c67 -22 98 -27 188
-27 l107 -1 0 -168 c0 -273 6 -268 -309 -268 -218 0 -220 0 -248 24 l-28 24
-3 215 -3 216 43 10 c63 15 162 5 253 -25z"/>
<path d="M20445 6486 c-45 -21 -652 -635 -660 -669 -4 -15 -2 -40 4 -55 7 -16
112 -128 234 -250 238 -236 272 -262 331 -242 44 14 639 611 661 662 12 30 15
82 15 265 0 319 17 303 -322 303 -174 -1 -241 -4 -263 -14z m519 -58 c13 -19
16 -59 16 -241 0 -140 -4 -226 -11 -240 -17 -33 -600 -617 -628 -628 -17 -7
-31 -5 -55 10 -48 30 -443 433 -451 460 -6 20 28 58 296 328 167 168 318 311
334 319 22 10 88 13 257 14 223 0 227 0 242 -22z"/>
<path d="M20697 6346 c-72 -26 -102 -72 -95 -148 10 -101 111 -156 205 -111
54 25 75 66 70 137 -3 53 -7 62 -40 92 -20 19 -45 34 -56 34 -11 0 -25 2 -33
5 -7 2 -30 -2 -51 -9z m108 -71 c38 -37 35 -95 -6 -129 -41 -35 -83 -34 -120
3 -41 41 -37 102 10 138 28 22 89 16 116 -12z"/>
<path d="M11780 6308 c-51 -119 -360 -870 -360 -877 0 -7 23 -21 34 -21 12 0
388 919 381 930 -14 22 -37 8 -55 -32z"/>
<path d="M11922 6203 c-8 -15 16 -45 133 -168 l143 -150 -132 -138 c-158 -167
-165 -175 -145 -188 8 -5 17 -9 21 -9 8 0 318 327 318 336 0 10 -291 314 -311
325 -14 7 -20 5 -27 -8z"/>
<path d="M11167 6052 c-86 -87 -157 -163 -157 -168 0 -5 75 -84 166 -174 157
-157 166 -164 180 -145 13 18 5 29 -136 170 l-150 150 145 145 c138 138 168
180 127 180 -10 0 -89 -71 -175 -158z"/>
</g>
</svg>
