<?xml version="1.0" standalone="no"?>
<!DOCTYPE svg PUBLIC "-//W3C//DTD SVG 20010904//EN"
 "http://www.w3.org/TR/2001/REC-SVG-20010904/DTD/svg10.dtd">
<svg version="1.0" xmlns="http://www.w3.org/2000/svg"
 width="1712.000000pt" height="238.000000pt" viewBox="0 0 1712.000000 238.000000"
 preserveAspectRatio="xMidYMid meet">

<g transform="translate(0.000000,238.000000) scale(0.100000,-0.100000)"
fill="#000000" stroke="none">
<path d="M8326 1613 c-3 -3 -6 -23 -6 -44 l0 -37 -75 -4 c-69 -3 -78 -6 -108
-36 l-32 -32 -3 -300 c-2 -259 -1 -304 13 -330 30 -58 45 -60 462 -60 415 0
406 -1 438 60 23 44 22 597 -1 641 -19 39 -68 59 -139 59 l-55 0 0 34 c0 33
-20 62 -33 49 -4 -3 -7 -24 -7 -45 l0 -38 -215 0 -215 0 0 39 c0 38 -10 57
-24 44z m-4 -165 c2 -24 8 -43 13 -43 6 0 11 19 13 43 l3 42 215 0 214 0 0
-39 c0 -42 16 -63 31 -40 5 8 9 29 9 47 l0 32 65 0 c89 0 105 -16 105 -105 l0
-65 -425 0 -425 0 0 64 c0 58 3 67 26 85 21 16 41 21 90 21 l63 0 3 -42z m668
-387 c0 -216 0 -220 -22 -235 -19 -14 -75 -16 -405 -16 -370 0 -384 1 -403 20
-19 19 -20 33 -20 235 l0 215 425 0 425 0 0 -219z"/>
<path d="M8246 1178 c-12 -17 -16 -49 -16 -130 0 -99 2 -108 22 -122 19 -14
67 -16 325 -16 289 0 303 1 313 19 5 11 10 71 10 134 0 112 0 114 -25 125 -18
8 -118 12 -320 12 -292 0 -294 0 -309 -22z m622 -125 l3 -103 -301 0 -300 0 0
105 0 105 298 -2 297 -3 3 -102z"/>
</g>
</svg>
